<?xml version="1.0" encoding="utf-8"?>
<!-- Generator: Adobe Illustrator 24.3.0, SVG Export Plug-In . SVG Version: 6.00 Build 0)  -->
<svg version="1.1" id="Capa_1" xmlns="http://www.w3.org/2000/svg" xmlns:xlink="http://www.w3.org/1999/xlink" x="0px" y="0px"
	 viewBox="0 0 219 213.8" style="enable-background:new 0 0 219 213.8;" xml:space="preserve">
<style type="text/css">
	.st0{fill:#FF6217;}
</style>
<path class="st0" d="M140,106.6L196.6,50c6.2-6.2,6.2-16.4,0-22.6l-7.5-7.5c-6.2-6.2-16.4-6.2-22.6,0l-56.6,56.6L53.3,19.9
	c-6.2-6.2-16.3-6.2-22.6,0l-7.6,7.5c-6.2,6.2-6.2,16.4,0,22.6l56.6,56.6l-56.6,56.5c-6.2,6.2-6.2,16.4,0,22.6l7.6,7.6
	c6.2,6.2,16.4,6.2,22.6,0l56.5-56.6l56.6,56.5c6.2,6.2,16.4,6.2,22.6,0l7.6-7.6c6.2-6.2,6.2-16.4,0-22.6L140,106.6z"/>
</svg>
