<?xml version="1.0" encoding="utf-8"?>
<!-- Generator: Adobe Illustrator 24.3.0, SVG Export Plug-In . SVG Version: 6.00 Build 0)  -->
<svg version="1.1" id="Capa_1" xmlns="http://www.w3.org/2000/svg" xmlns:xlink="http://www.w3.org/1999/xlink" x="0px" y="0px"
	 viewBox="0 0 192 170.6" style="enable-background:new 0 0 192 170.6;" xml:space="preserve">
<style type="text/css">
	.st0{fill:#DD2626;}
</style>
<g>
	<path class="st0" d="M176,0H16C7.1,0,0,7.2,0,16v10.7c0,8.8,7.2,16,16,16h160c8.9,0,16-7.2,16-16V16C192,7.1,184.8,0,176,0z"/>
	<path class="st0" d="M176,64H16C7.1,64,0,71.2,0,80v10.7c0,8.8,7.2,16,16,16h160c8.9,0,16-7.2,16-16V80C192,71.1,184.8,64,176,64z"
		/>
	<path class="st0" d="M176,128H16c-8.9,0-16,7.1-16,16v10.6c0,8.9,7.2,16,16,16h160c8.9,0,16-7.1,16-16V144
		C192,135.1,184.8,128,176,128z"/>
</g>
</svg>
